PathFileType	4	(X/Y/Z)	/Users/itak/Documents/Research/Walk-IL/dataset/trc/00044_00004.trc
DataRate	CameraRate	NumFrames	NumMarkers	Units	OrigDataRate	OrigDataStartFrame	OrigNumFrames
100.000000	100.000000	4	53	mm	100.000000	64	514
Frame#	Time	RPSI			LPSI			L3			STRN			T10			C7			CLAV			RBAK			LBAK			LSHO			LUPA			LAEL			LAOL			LWTS			LWPS			LFRA			LIFD			LHPS			LHTS			RSHO			RUPA			RAEL			RAOL			RWTS			RWPS			RFRA			RIFD			RHTS			RHPS			RBHD			LFHD			RFHD			LBHD			LHIP			RHIP			RASI			LASI			LKNE			LTHI			LANK			LTIP			LTOE			LMT1			LMT5			LHEE			RKNE			RTHI			RANK			RTIP			RTOE			RMT1			RMT5			RHEE			
		X1	Y1	Z1	X2	Y2	Z2	X3	Y3	Z3	X4	Y4	Z4	X5	Y5	Z5	X6	Y6	Z6	X7	Y7	Z7	X8	Y8	Z8	X9	Y9	Z9	X10	Y10	Z10	X11	Y11	Z11	X12	Y12	Z12	X13	Y13	Z13	X14	Y14	Z14	X15	Y15	Z15	X16	Y16	Z16	X17	Y17	Z17	X18	Y18	Z18	X19	Y19	Z19	X20	Y20	Z20	X21	Y21	Z21	X22	Y22	Z22	X23	Y23	Z23	X24	Y24	Z24	X25	Y25	Z25	X26	Y26	Z26	X27	Y27	Z27	X28	Y28	Z28	X29	Y29	Z29	X30	Y30	Z30	X31	Y31	Z31	X32	Y32	Z32	X33	Y33	Z33	X34	Y34	Z34	X35	Y35	Z35	X36	Y36	Z36	X37	Y37	Z37	X38	Y38	Z38	X39	Y39	Z39	X40	Y40	Z40	X41	Y41	Z41	X42	Y42	Z42	X43	Y43	Z43	X44	Y44	Z44	X45	Y45	Z45	X46	Y46	Z46	X47	Y47	Z47	X48	Y48	Z48	X49	Y49	Z49	X50	Y50	Z50	X51	Y51	Z51	X52	Y52	Z52	X53	Y53	Z53	

65	0.64	-1267.036743164062	1076.798950195312	154.2686004638672	-1261.844848632812	1066.669189453125	-9.639418601989746	-1270.696899414062	1127.196166992188	60.56723022460938	-1055.717407226562	1323.056762695312	79.591552734375	-1300.843627929688	1270.673706054688	49.33824157714844	-1252.623657226562	1539.465209960938	38.49345779418945	-1097.076293945312	1448.222778320312	67.59210205078125	-1313.616821289062	1402.452026367188	113.4644927978516	-1257.322387695312	1496.046875	-60.57478713989258	-1145.537841796875	1501.77392578125	-120.7212829589844	-1165.080444335938	1373.117309570312	-198.2379455566406	-1163.443603515625	1153.696533203125	-215.2630767822266	-1229.32421875	1145.160034179688	-132.8585052490234	-1090.427734375	900.7178344726562	-141.9422607421875	-1161.2216796875	887.3737182617188	-193.4027099609375	-1151.919189453125	1037.680908203125	-216.1354064941406	-1073.031005859375	716.501953125	-115.7969512939453	-1130.223754882812	796.5485229492188	-186.1852111816406	-1070.029174804688	806.5487670898438	-149.9058532714844	-1202.48486328125	1527.171997070312	223.5804595947266	-1226.167846679688	1458.90087890625	293.2757263183594	-1268.72998046875	1191.117919921875	314.9795532226562	-1250.569213867188	1161.342163085938	220.9276275634766	-1135.758911132812	930.9239501953125	315.0800476074219	-1211.357299804688	917.998291015625	368.2937927246094	-1259.77880859375	1115.232666015625	334.2573852539062	-1119.374145507812	746.2990112304688	306.8917846679688	-1106.05029296875	822.6715698242188	337.5584716796875	-1170.020263671875	818.44140625	377.6781005859375	-1183.499755859375	1719.776733398438	-27.97225379943848	-1049.734741210938	1741.972900390625	143.2372436523438	-1019.922119140625	1741.431274414062	49.09792327880859	-1219.972778320312	1718.389404296875	111.9762420654297	-1160.857666015625	962.4605102539062	-111.0479049682617	-1159.760375976562	961.1921997070312	259.1842041015625	-1053.532104492188	997.6907958984375	191.7625732421875	-1045.50927734375	1012.168823242188	-42.89663314819336	-1129.198852539062	518.7784423828125	-56.00579833984375	-1146.728881835938	655.4935302734375	-94.24420166015625	-1232.040283203125	43.83137512207031	-59.14235305786133	-1211.978393554688	289.6750793457031	-78.1220703125	-1020.532897949219	41.81206893920898	29.55607223510742	-1082.330932617188	51.63799667358398	38.54463195800781	-1106.448852539062	42.1832275390625	-64.94268035888672	-1306.432495117188	50.46911239624023	-15.50161170959473	-1155.323852539062	524.4395141601562	203.2801513671875	-1136.653930664062	793.3682250976562	253.7533416748047	-1266.842041015625	46.38993072509766	163.9060668945312	-1182.272216796875	403.9059143066406	198.5002593994141	-1032.285278320312	45.93566131591797	136.1800537109375	-1093.40234375	51.51291275024414	103.5970077514648	-1119.028930664062	44.9709587097168	196.3941040039062	-1318.33203125	48.8210334777832	114.8282928466797	
66	0.65	-1266.824951171875	1076.764282226562	154.1731414794922	-1261.563232421875	1066.594604492188	-9.721628189086914	-1270.463989257812	1127.141967773438	60.47660064697266	-1055.478149414062	1323.054565429688	79.57026672363281	-1300.599731445312	1270.61572265625	49.2274169921875	-1252.492919921875	1539.446899414062	38.38100433349609	-1096.9306640625	1448.20263671875	67.54590606689453	-1313.442626953125	1402.400146484375	113.3413238525391	-1257.078857421875	1495.96630859375	-60.6988639831543	-1145.298828125	1501.741455078125	-120.777229309082	-1164.793701171875	1373.072509765625	-198.3159790039062	-1162.9794921875	1153.661743164062	-215.3080902099609	-1228.9365234375	1145.087768554688	-132.9347381591797	-1089.819458007812	900.7474365234375	-141.9332122802734	-1160.671508789062	887.3264770507812	-193.4666900634766	-1151.52197265625	1037.64404296875	-216.2219696044922	-1072.208862304688	716.4236450195312	-115.8294906616211	-1129.665893554688	796.5189208984375	-186.2672576904297	-1069.498168945312	806.6231689453125	-150.0038146972656	-1202.404907226562	1527.175659179688	223.4862213134766	-1226.017578125	1458.890014648438	293.2032470703125	-1268.363525390625	1191.018432617188	314.8215942382812	-1250.137939453125	1161.294555664062	220.7870941162109	-1135.080200195312	930.9744262695312	314.8700866699219	-1210.6806640625	917.948974609375	368.0678405761719	-1259.371704101562	1115.137084960938	334.0364990234375	-1118.431762695312	746.299072265625	306.7599792480469	-1105.177124023438	822.7177124023438	337.4118957519531	-1169.276611328125	818.4422607421875	377.45703125	-1183.557006835938	1719.574584960938	-28.31989479064941	-1050.586181640625	1742.449096679688	143.429931640625	-1020.421813964844	1741.993408203125	49.37599563598633	-1220.562744140625	1718.033203125	111.567497253418	-1160.480712890625	962.4317016601562	-111.0876388549805	-1159.594482421875	961.183837890625	259.1666564941406	-1053.37646484375	997.6965942382812	191.7799377441406	-1045.165649414062	1012.136901855469	-42.83872604370117	-1128.857543945312	518.7645263671875	-55.95988845825195	-1146.222045898438	655.451416015625	-94.13278961181641	-1232.0419921875	43.83816146850586	-59.13660430908203	-1211.7890625	289.6725158691406	-78.11136627197266	-1020.526733398438	41.80916213989258	29.55657768249512	-1082.32080078125	51.63518905639648	38.55170822143555	-1106.43505859375	42.1791877746582	-64.93132019042969	-1306.449829101562	50.52653121948242	-15.50330924987793	-1155.115600585938	524.4251098632812	203.2959442138672	-1136.404296875	793.3666381835938	253.7613830566406	-1266.838623046875	46.38618850708008	163.9110717773438	-1182.052368164062	403.8835754394531	198.52294921875	-1032.273681640625	45.94186019897461	136.1866149902344	-1093.401489257812	51.50796508789062	103.5938339233398	-1119.026489257812	44.97084808349609	196.3947296142578	-1318.335815429688	48.83100509643555	114.8338928222656	
67	0.66	-1266.618286132812	1076.727294921875	154.0746917724609	-1261.263793945312	1066.51806640625	-9.810563087463379	-1270.221801757812	1127.080444335938	60.38291549682617	-1055.243286132812	1323.053955078125	79.56350708007812	-1300.379150390625	1270.55322265625	49.10283660888672	-1252.365966796875	1539.418334960938	38.26541137695312	-1096.782592773438	1448.177490234375	67.50354766845703	-1313.284790039062	1402.342407226562	113.2144088745117	-1256.8623046875	1495.885009765625	-60.80005264282227	-1145.05517578125	1501.707641601562	-120.8297119140625	-1164.511596679688	1373.023071289062	-198.3941192626953	-1162.484008789062	1153.628173828125	-215.3440856933594	-1228.540405273438	1145.01171875	-133.0121917724609	-1089.197021484375	900.7688598632812	-141.9345397949219	-1160.067138671875	887.2755126953125	-193.5218505859375	-1151.136352539062	1037.608032226562	-216.3196105957031	-1071.384521484375	716.3577270507812	-115.8267364501953	-1129.075927734375	796.5032958984375	-186.3542938232422	-1068.903686523438	806.6886596679688	-150.1197967529297	-1202.33544921875	1527.172729492188	223.3993377685547	-1225.895629882812	1458.869873046875	293.1290588378906	-1267.99609375	1190.907348632812	314.6661682128906	-1249.703125	1161.240844726562	220.6429290771484	-1134.36767578125	931.0213623046875	314.6649780273438	-1210.002197265625	917.8899536132812	367.8261108398438	-1258.934692382812	1115.029541015625	333.8317260742188	-1117.537231445312	746.2936401367188	306.5700073242188	-1104.304931640625	822.7527465820312	337.2496643066406	-1168.504760742188	818.4317626953125	377.1844482421875	-1183.67822265625	1719.357177734375	-28.63021278381348	-1051.402465820312	1742.919555664062	143.5939788818359	-1020.943359375	1742.55078125	49.58474731445312	-1221.12109375	1717.658081054688	111.2172775268555	-1160.08984375	962.4037475585938	-111.1248016357422	-1159.430053710938	961.1721801757812	259.1484069824219	-1053.22021484375	997.7061157226562	191.7960662841797	-1044.840576171875	1012.107788085938	-42.77460861206055	-1128.518432617188	518.754638671875	-55.92030334472656	-1145.7236328125	655.4083251953125	-94.01959228515625	-1232.041137695312	43.84244537353516	-59.13166427612305	-1211.612426757812	289.6726684570312	-78.10773468017578	-1020.522521972656	41.80691146850586	29.55803680419922	-1082.312133789062	51.63173675537109	38.55788421630859	-1106.423095703125	42.17660903930664	-64.91986846923828	-1306.487548828125	50.60922622680664	-15.51189994812012	-1154.909057617188	524.4087524414062	203.3049774169922	-1136.173217773438	793.3632202148438	253.7641296386719	-1266.83642578125	46.38298416137695	163.9163360595703	-1181.846313476562	403.8617553710938	198.5474243164062	-1032.264770507812	45.94363403320312	136.1884460449219	-1093.402221679688	51.50344467163086	103.5922317504883	-1119.023315429688	44.97510528564453	196.3941345214844	-1318.33837890625	48.83855438232422	114.8390197753906	
68	0.67	-1266.417236328125	1076.689697265625	153.9717864990234	-1260.947021484375	1066.443725585938	-9.905673980712891	-1269.96533203125	1127.012817382812	60.28781127929688	-1055.009765625	1323.056274414062	79.56943511962891	-1300.177734375	1270.486083984375	48.9678955078125	-1252.2412109375	1539.380126953125	38.14649963378906	-1096.632080078125	1448.149047851562	67.46702575683594	-1313.139526367188	1402.279052734375	113.0862121582031	-1256.670776367188	1495.805419921875	-60.87839126586914	-1144.805541992188	1501.673950195312	-120.8771209716797	-1164.227783203125	1372.97021484375	-198.4696350097656	-1161.97216796875	1153.596923828125	-215.3755035400391	-1228.13330078125	1144.932739257812	-133.0925903320312	-1088.574829101562	900.7806396484375	-141.9510345458984	-1159.416625976562	887.2232055664062	-193.5703887939453	-1150.74951171875	1037.573608398438	-216.4234313964844	-1070.591430664062	716.3211669921875	-115.799690246582	-1128.448852539062	796.5013427734375	-186.4413146972656	-1068.260864257812	806.7472534179688	-150.2346038818359	-1202.278442382812	1527.164184570312	223.3211212158203	-1225.798828125	1458.840087890625	293.0540466308594	-1267.628295898438	1190.786743164062	314.5111999511719	-1249.27734375	1161.180541992188	220.4889373779297	-1133.63037109375	931.0643920898438	314.4613342285156	-1209.325805664062	917.8206176757812	367.5664672851562	-1258.468017578125	1114.910766601562	333.6465148925781	-1116.682495117188	746.29638671875	306.3344116210938	-1103.44482421875	822.7843627929688	337.0537109375	-1167.714599609375	818.4207153320312	376.8801879882812	-1183.878295898438	1719.117919921875	-28.8929557800293	-1052.182739257812	1743.384521484375	143.7231903076172	-1021.479614257812	1743.097290039062	49.72158050537109	-1221.660766601562	1717.26904296875	110.9221572875977	-1159.691650390625	962.3768310546875	-111.1582107543945	-1159.269287109375	961.156982421875	259.1270141601562	-1053.061401367188	997.7174682617188	191.8080444335938	-1044.534545898438	1012.07958984375	-42.70811462402344	-1128.190185546875	518.7470703125	-55.88845825195312	-1145.26416015625	655.3701171875	-93.92118835449219	-1232.038208007812	43.84396362304688	-59.12700653076172	-1211.450561523438	289.6744079589844	-78.11110687255859	-1020.519775390625	41.80499267578125	29.56037521362305	-1082.305541992188	51.62887191772461	38.56376266479492	-1106.414428710938	42.17519760131836	-64.90855407714844	-1306.537231445312	50.70472717285156	-15.52533340454102	-1154.712036132812	524.3919067382812	203.3111114501953	-1135.959106445312	793.3585205078125	253.7643127441406	-1266.83544921875	46.38041305541992	163.9222259521484	-1181.66796875	403.8401489257812	198.5680847167969	-1032.257934570312	45.94247055053711	136.1874389648438	-1093.403930664062	51.50034713745117	103.5921096801758	-1119.02001953125	44.98295974731445	196.3929443359375	-1318.339965820312	48.843994140625	114.8432922363281	
